<svg width="113" height="121" viewBox="0 0 113 121" fill="none" xmlns="http://www.w3.org/2000/svg">
<g clip-path="url(#clip0_381_203)">
<path d="M87.1206 7.65978L86.5605 7.35978C85.9505 7.05978 85.3405 6.75978 84.7105 6.47978L84.5305 6.38978C83.8505 6.08978 83.1605 5.79978 82.4605 5.52978L81.8805 5.31978C81.3205 5.10978 80.7606 4.91978 80.1906 4.72978L79.6705 4.55978C78.9605 4.33978 78.2305 4.12978 77.5005 3.93978L77.0506 3.82978C76.4406 3.67978 75.8306 3.54978 75.2206 3.41978L74.5806 3.29978C73.8606 3.15978 73.1306 3.03978 72.4006 2.92978H72.2805C71.5105 2.81978 70.7305 2.73978 69.9505 2.66978L69.3006 2.61978L67.4105 2.51978H66.8605C66.0605 2.51978 65.2605 2.51978 64.4605 2.51978H63.9305C63.2705 2.51978 62.6205 2.57978 61.9305 2.62978L61.2505 2.68978C60.4205 2.75978 59.5905 2.84978 58.7605 2.96978C28.8905 7.17978 4.62055 36.7398 4.56055 68.9998C4.56055 69.8898 4.56055 70.7798 4.62055 71.6598C4.62055 71.8698 4.62055 72.0698 4.62055 72.2798C4.67055 73.1398 4.72055 73.9998 4.80055 74.8498V75.1598C4.88055 75.9398 4.97055 76.6998 5.08055 77.4698C5.08055 77.6498 5.08055 77.8398 5.15055 78.0198C5.27055 78.8498 5.41055 79.6598 5.56055 80.4698L5.65055 80.9198C5.80055 81.6298 5.95055 82.3398 6.12055 83.0398C6.12055 83.1998 6.19055 83.3498 6.23055 83.5098C6.42055 84.2898 6.63055 85.0598 6.86055 85.8298L7.01055 86.3298C7.22055 87.0198 7.44055 87.7098 7.68055 88.3298C7.68055 88.4398 7.75055 88.5498 7.79055 88.6498C8.05055 89.3898 8.34055 90.1298 8.63055 90.8498L8.84055 91.3598C9.14055 92.0698 9.44055 92.7598 9.77055 93.4498C9.76678 93.4797 9.76678 93.5099 9.77055 93.5398C10.1005 94.2398 10.4605 94.9398 10.8205 95.6198L11.0805 96.0998C11.4505 96.7698 11.8305 97.4398 12.2205 98.0998L12.3405 98.2798C12.7105 98.8898 13.0905 99.4798 13.4905 100.06L13.7705 100.49C14.2005 101.1 14.6405 101.71 15.0905 102.3L15.3205 102.6C15.7305 103.12 16.1405 103.6 16.5705 104.14C16.6705 104.26 16.7605 104.38 16.8605 104.49C17.3405 105.05 17.8605 105.6 18.3405 106.13L18.6605 106.46C19.1205 106.94 19.5805 107.4 20.0605 107.85C20.1505 107.93 20.2305 108.02 20.3105 108.1C20.8505 108.6 21.4005 109.1 21.9505 109.56L22.3405 109.88C22.8805 110.33 23.4205 110.76 23.9805 111.18L24.1005 111.28C24.6905 111.72 25.2905 112.15 25.9005 112.56L26.3405 112.85C26.9505 113.25 27.5705 113.65 28.2105 114.02L28.3405 114.09C37.4446 119.357 48.0745 121.358 58.4705 119.76C88.3705 115.56 112.641 85.9998 112.701 53.7598C112.831 32.7498 102.561 15.7698 87.1206 7.65978Z" fill="#F1F2F2"/>
<path d="M26.43 112.89L26 112.6C25.39 112.19 24.79 111.76 24.2 111.32L24.08 111.22C23.52 110.8 22.98 110.37 22.44 109.92L22 109.6C21.45 109.12 20.9 108.6 20.36 108.14C20.28 108.06 20.2 107.97 20.11 107.89C19.63 107.44 19.17 106.98 18.71 106.5L18.39 106.17C17.89 105.64 17.39 105.09 16.91 104.53C16.81 104.42 16.72 104.3 16.62 104.18C16.19 103.68 15.78 103.18 15.37 102.64L15.14 102.34C14.69 101.75 14.25 101.15 13.82 100.53L13.54 100.1C13.14 99.5199 12.76 98.9299 12.39 98.3199L12.27 98.1399C11.88 97.4899 11.5 96.8199 11.13 96.1399L10.87 95.6599C10.51 94.9799 10.15 94.2799 9.82 93.5799C9.81623 93.55 9.81623 93.5198 9.82 93.4899C9.49 92.7999 9.19 92.1099 8.89 91.3999L8.68 90.8899C8.39 90.1699 8.1 89.4299 7.84 88.6899C7.84 88.5899 7.77 88.4799 7.73 88.3699C7.49 87.6999 7.27 87.0099 7.06 86.3699L6.91 85.8699C6.68 85.0999 6.47 84.3299 6.28 83.5499C6.28 83.3899 6.2 83.2399 6.17 83.0799C6 82.3799 5.85 81.6699 5.7 80.9599L5.61 80.5099C5.46 79.6999 5.32 78.8899 5.2 78.0599C5.2 77.8799 5.2 77.6899 5.13 77.5099C5.02 76.7399 4.93 75.9799 4.85 75.1999V74.8899C4.77 74.0399 4.72 73.1799 4.67 72.3199C4.67 72.1099 4.67 71.9099 4.67 71.6999C4.67 70.8199 4.61 69.9299 4.61 69.0399C4.62 36.7399 28.89 7.17988 58.78 2.99988C59.61 2.87988 60.44 2.78988 61.27 2.71988L62 2.63988C62.67 2.58988 63.32 2.54988 64 2.52988H64.53C65.33 2.52988 66.13 2.52988 66.93 2.52988H67.48L69.37 2.62988L70.02 2.67988C70.8 2.74988 71.58 2.82988 72.35 2.93988H72.47C73.2 3.04988 73.93 3.16988 74.65 3.30988L75.29 3.42988C75.9 3.55988 76.51 3.68988 77.12 3.83988L77.57 3.94988C78.3 4.13988 79.03 4.34988 79.74 4.56988L80.26 4.73988C80.83 4.92988 81.39 5.11988 81.95 5.32988L82.53 5.53988C83.23 5.80988 83.92 6.09988 84.6 6.39988L84.78 6.48988C85.41 6.76988 86.02 7.06988 86.63 7.36988L87.19 7.66988L87.76 7.95988L83.13 5.46988C74.286 0.725661 64.1406 -1.01846 54.22 0.49988C24.33 4.69988 0.06 34.2599 0 66.5199C0 87.2999 10 104.13 25.1 112.36L29.66 114.84C29.24 114.61 28.83 114.37 28.43 114.13L28.3 114.06C27.66 113.69 27 113.29 26.43 112.89Z" fill="#D1D3D4"/>
<path d="M57.8308 56.0999L55.5508 54.8599C56.1437 55.173 56.7627 55.434 57.4008 55.6399L59.6808 56.8799C59.0427 56.674 58.4237 56.413 57.8308 56.0999Z" fill="#80C782"/>
<path d="M59.6198 87.7L57.3398 86.46L57.3498 80.49L59.6298 81.73L59.6198 87.7Z" fill="#170740"/>
<path d="M63.1106 66.21L65.3906 67.45C65.6856 67.6056 65.9666 67.7862 66.2306 67.99C66.538 68.2219 66.7842 68.5252 66.948 68.8737C67.1118 69.2222 67.1882 69.6053 67.1706 69.99C67.1706 71.87 65.9106 73.22 63.4206 73.99L61.1406 72.75C63.6306 71.95 64.8806 70.6 64.8906 68.75C64.9082 68.3653 64.8318 67.9822 64.668 67.6337C64.5042 67.2852 64.258 66.9819 63.9506 66.75C63.6866 66.5462 63.4056 66.3656 63.1106 66.21Z" fill="#170740"/>
<path d="M59.6491 74.7398L57.3691 73.4998L57.3791 64.2798L59.6591 65.5298L59.6491 74.7398Z" fill="#170740"/>
<path d="M68.5499 59.4198L70.8299 60.6598C68.4736 59.5083 65.999 58.6164 63.4499 57.9998L61.1699 56.7598C63.719 57.3764 66.1936 58.2683 68.5499 59.4198Z" fill="#170740"/>
<path d="M47.8601 72.9998L45.5801 71.7598C47.4436 72.4559 49.3789 72.9422 51.3501 73.2098C53.3325 73.5343 55.3448 73.6382 57.3501 73.5198L59.6301 74.7598C57.6248 74.8775 55.6126 74.7735 53.6301 74.4498C51.659 74.1817 49.7237 73.6954 47.8601 72.9998Z" fill="#170740"/>
<path d="M47.8503 80.83L45.5703 79.58L45.5803 71.74L47.8603 72.98L47.8503 80.83Z" fill="#170740"/>
<path d="M59.6804 56.8799L57.4004 55.6399L57.4104 48.6499L59.6904 49.8899L59.6804 56.8799Z" fill="#170740"/>
<path d="M63.4792 41.8799L61.1992 40.6399C65.0331 40.2035 68.9159 40.5887 72.5892 41.7699L74.8692 42.9999C71.1951 41.8221 67.3123 41.4403 63.4792 41.8799Z" fill="#170740"/>
<path d="M59.7195 37.98L57.4395 36.74L61.2095 36.21L63.4895 37.45L59.7195 37.98Z" fill="#170740"/>
<path d="M59.7097 42.53L57.4297 41.29L57.4397 36.74L59.7197 37.98L59.7097 42.53Z" fill="#170740"/>
<path d="M52.8006 63.0598L50.5306 61.8198C49.528 61.2994 48.6135 60.6245 47.8206 59.8198C46.2519 58.0645 45.4396 55.7608 45.5606 53.4098C45.5542 52.0076 45.8297 50.6184 46.3708 49.3249C46.912 48.0313 47.7077 46.8597 48.7106 45.8798C51.1203 43.5498 54.1458 41.9572 57.4306 41.2898L59.7106 42.5298C56.4309 43.2032 53.4102 44.7951 51.0006 47.1198C49.999 48.1002 49.2049 49.2721 48.6654 50.5657C48.126 51.8593 47.8523 53.2482 47.8606 54.6498C47.798 55.8143 47.9653 56.9797 48.3531 58.0796C48.7409 59.1794 49.3415 60.1921 50.1206 61.0598C50.9057 61.8605 51.8097 62.5351 52.8006 63.0598Z" fill="#170740"/>
<path d="M74.4108 63.93C75.1295 65.2924 75.4746 66.8209 75.4108 68.36C75.4512 71.3424 74.3076 74.2192 72.2308 76.36C69.7882 78.7439 66.7074 80.3694 63.3608 81.04V87.13L59.5808 87.66V81.66C55.6358 82.2333 51.6129 81.9259 47.8008 80.76V73C49.6612 73.6949 51.5931 74.1812 53.5608 74.45C55.5433 74.7737 57.5555 74.8777 59.5608 74.76V65.52L57.8108 65C54.1908 64 51.6108 62.64 50.1008 61C49.3216 60.1323 48.721 59.1196 48.3332 58.0198C47.9455 56.9199 47.7781 55.7545 47.8408 54.59C47.8431 53.1971 48.1238 51.8187 48.6665 50.5359C49.2092 49.2531 50.0028 48.0917 51.0008 47.12C53.4158 44.7919 56.4439 43.1998 59.7308 42.53V38L63.5108 37.47V41.9C67.3326 41.4582 71.2047 41.8331 74.8708 43L72.2708 50.32C69.4219 49.4535 66.445 49.0847 63.4708 49.23V58.01C66.1156 58.6301 68.677 59.5634 71.1008 60.79C72.459 61.5301 73.6001 62.6126 74.4108 63.93ZM63.4208 74C65.9108 73.2 67.1608 71.85 67.1708 70C67.1884 69.6153 67.1119 69.2322 66.9482 68.8837C66.7844 68.5352 66.5381 68.2319 66.2308 68C65.3733 67.3974 64.4292 66.9287 63.4308 66.61V74M59.6808 56.88V49.88C57.3108 50.6 56.1208 51.79 56.1208 53.48C56.1037 53.8548 56.1703 54.2287 56.3156 54.5746C56.4608 54.9205 56.6812 55.2297 56.9608 55.48C57.771 56.099 58.6902 56.5604 59.6708 56.84" fill="#280D6C"/>
<path d="M79.2602 30.0698L77.0002 28.8298C86.2002 33.8298 92.3102 44.0798 92.2902 56.6898C92.2902 76.2798 77.4702 94.2798 59.2902 96.8298C53.2697 97.7542 47.1118 96.7016 41.7402 93.8298L44.0002 94.9998C49.3718 97.8716 55.5297 98.9242 61.5502 97.9998C79.6902 95.4498 94.4802 77.4498 94.5502 57.8598C94.5702 45.3198 88.4602 35.0798 79.2602 30.0698Z" fill="#009190"/>
<path d="M19.3503 68.5C19.3503 43.33 38.4103 20.19 61.7303 16.91C69.4764 15.7254 77.3977 17.0907 84.3003 20.8L82.0003 19.56C75.0977 15.8507 67.1764 14.4854 59.4303 15.67C36.1303 19 17.1203 42.09 17.0703 67.26C17.0703 83.49 24.8903 96.66 36.7203 103.09L39.0003 104.33C27.1703 97.9 19.3203 84.73 19.3503 68.5Z" fill="#009190"/>
<path d="M61.7297 16.9098C85.0597 13.6298 104 31.4398 104 56.6098C104 81.7798 84.9397 104.94 61.6097 108.22C38.2797 111.5 19.3097 93.6798 19.3497 68.4998C19.3897 43.3198 38.4097 20.1898 61.7297 16.9098ZM61.5797 98.0698C79.7197 95.5198 94.5097 77.5198 94.5797 57.9298C94.6497 38.3398 79.8597 24.4998 61.7097 27.0498C43.5597 29.5998 28.7797 47.6098 28.7097 67.1798C28.6397 86.7498 43.3997 100.62 61.5397 98.0698" fill="#009E96"/>
</g>
<defs>
<clipPath id="clip0_381_203">
<rect width="112.79" height="120.3" fill="white"/>
</clipPath>
</defs>
</svg>
