<svg width="113" height="121" viewBox="0 0 113 121" fill="none" xmlns="http://www.w3.org/2000/svg">
<g clip-path="url(#clip0_381_60)">
<path d="M87.1206 7.65978L86.5605 7.35978C85.9505 7.05978 85.3405 6.75978 84.7105 6.47978L84.5305 6.38978C83.8505 6.08978 83.1605 5.79978 82.4605 5.52978L81.8805 5.31978C81.3205 5.10978 80.7606 4.91978 80.1906 4.72978L79.6705 4.55978C78.9605 4.33978 78.2305 4.12978 77.5005 3.93978L77.0506 3.82978C76.4406 3.67978 75.8306 3.54978 75.2206 3.41978L74.5806 3.29978C73.8606 3.15978 73.1306 3.03978 72.4006 2.92978H72.2805C71.5105 2.81978 70.7305 2.73978 69.9505 2.66978L69.3006 2.61978L67.4105 2.51978H66.8605C66.0605 2.51978 65.2605 2.51978 64.4605 2.51978H63.9305C63.2705 2.51978 62.6205 2.57978 61.9305 2.62978L61.2505 2.68978C60.4205 2.75978 59.5905 2.84978 58.7605 2.96978C28.8905 7.17978 4.62055 36.7398 4.56055 68.9998C4.56055 69.8898 4.56055 70.7798 4.62055 71.6598C4.62055 71.8698 4.62055 72.0698 4.62055 72.2798C4.67055 73.1398 4.72055 73.9998 4.80055 74.8498V75.1598C4.88055 75.9398 4.97055 76.6998 5.08055 77.4698C5.08055 77.6498 5.08055 77.8398 5.15055 78.0198C5.27055 78.8498 5.41055 79.6598 5.56055 80.4698L5.65055 80.9198C5.80055 81.6298 5.95055 82.3398 6.12055 83.0398C6.12055 83.1998 6.19055 83.3498 6.23055 83.5098C6.42055 84.2898 6.63055 85.0598 6.86055 85.8298L7.01055 86.3298C7.22055 87.0198 7.44055 87.7098 7.68055 88.3298C7.68055 88.4398 7.75055 88.5498 7.79055 88.6498C8.05055 89.3898 8.34055 90.1298 8.63055 90.8498L8.84055 91.3598C9.14055 92.0698 9.44055 92.7598 9.77055 93.4498C9.76678 93.4797 9.76678 93.5099 9.77055 93.5398C10.1005 94.2398 10.4605 94.9398 10.8205 95.6198L11.0805 96.0998C11.4505 96.7698 11.8305 97.4398 12.2205 98.0998L12.3405 98.2798C12.7105 98.8898 13.0905 99.4798 13.4905 100.06L13.7705 100.49C14.2005 101.1 14.6405 101.71 15.0905 102.3L15.3205 102.6C15.7305 103.12 16.1405 103.6 16.5705 104.14C16.6705 104.26 16.7605 104.38 16.8605 104.49C17.3405 105.05 17.8605 105.6 18.3405 106.13L18.6605 106.46C19.1205 106.94 19.5805 107.4 20.0605 107.85C20.1505 107.93 20.2305 108.02 20.3105 108.1C20.8505 108.6 21.4005 109.1 21.9505 109.56L22.3405 109.88C22.8805 110.33 23.4205 110.76 23.9805 111.18L24.1005 111.28C24.6905 111.72 25.2905 112.15 25.9005 112.56L26.3405 112.85C26.9505 113.25 27.5705 113.65 28.2105 114.02L28.3405 114.09C37.4446 119.357 48.0745 121.358 58.4705 119.76C88.3705 115.56 112.641 85.9998 112.701 53.7598C112.831 32.7498 102.561 15.7698 87.1206 7.65978Z" fill="#F1F2F2"/>
<path d="M26.43 112.89L26 112.6C25.39 112.19 24.79 111.76 24.2 111.32L24.08 111.22C23.52 110.8 22.98 110.37 22.44 109.92L22 109.6C21.45 109.12 20.9 108.6 20.36 108.14C20.28 108.06 20.2 107.97 20.11 107.89C19.63 107.44 19.17 106.98 18.71 106.5L18.39 106.17C17.89 105.64 17.39 105.09 16.91 104.53C16.81 104.42 16.72 104.3 16.62 104.18C16.19 103.68 15.78 103.18 15.37 102.64L15.14 102.34C14.69 101.75 14.25 101.15 13.82 100.53L13.54 100.1C13.14 99.5199 12.76 98.9299 12.39 98.3199L12.27 98.1399C11.88 97.4899 11.5 96.8199 11.13 96.1399L10.87 95.6599C10.51 94.9799 10.15 94.2799 9.82 93.5799C9.81623 93.55 9.81623 93.5198 9.82 93.4899C9.49 92.7999 9.19 92.1099 8.89 91.3999L8.68 90.8899C8.39 90.1699 8.1 89.4299 7.84 88.6899C7.84 88.5899 7.77 88.4799 7.73 88.3699C7.49 87.6999 7.27 87.0099 7.06 86.3699L6.91 85.8699C6.68 85.0999 6.47 84.3299 6.28 83.5499C6.28 83.3899 6.2 83.2399 6.17 83.0799C6 82.3799 5.85 81.6699 5.7 80.9599L5.61 80.5099C5.46 79.6999 5.32 78.8899 5.2 78.0599C5.2 77.8799 5.2 77.6899 5.13 77.5099C5.02 76.7399 4.93 75.9799 4.85 75.1999V74.8899C4.77 74.0399 4.72 73.1799 4.67 72.3199C4.67 72.1099 4.67 71.9099 4.67 71.6999C4.67 70.8199 4.61 69.9299 4.61 69.0399C4.62 36.7399 28.89 7.17988 58.78 2.99988C59.61 2.87988 60.44 2.78988 61.27 2.71988L62 2.63988C62.67 2.58988 63.32 2.54988 64 2.52988H64.53C65.33 2.52988 66.13 2.52988 66.93 2.52988H67.48L69.37 2.62988L70.02 2.67988C70.8 2.74988 71.58 2.82988 72.35 2.93988H72.47C73.2 3.04988 73.93 3.16988 74.65 3.30988L75.29 3.42988C75.9 3.55988 76.51 3.68988 77.12 3.83988L77.57 3.94988C78.3 4.13988 79.03 4.34988 79.74 4.56988L80.26 4.73988C80.83 4.92988 81.39 5.11988 81.95 5.32988L82.53 5.53988C83.23 5.80988 83.92 6.09988 84.6 6.39988L84.78 6.48988C85.41 6.76988 86.02 7.06988 86.63 7.36988L87.19 7.66988L87.76 7.95988L83.13 5.46988C74.286 0.725661 64.1406 -1.01846 54.22 0.49988C24.33 4.69988 0.06 34.2599 0 66.5199C0 87.2999 10 104.13 25.1 112.36L29.66 114.84C29.24 114.61 28.83 114.37 28.43 114.13L28.3 114.06C27.66 113.69 27 113.29 26.43 112.89Z" fill="#D1D3D4"/>
<path d="M90.6101 40.9599L88.3301 39.7199L95.2001 31.3599L97.4801 32.5999L90.6101 40.9599Z" fill="#009190"/>
<path d="M44.0007 94.3899L41.7207 93.15C47.0923 96.0217 53.2502 97.0743 59.2707 96.15C77.4207 93.6 92.2007 75.6 92.2707 56.02C92.338 50.3366 90.9836 44.7266 88.3307 39.7L90.6107 41C93.2636 46.0266 94.618 51.6366 94.5507 57.32C94.5507 76.9 79.7207 94.8999 61.5507 97.4499C55.5237 98.356 49.3654 97.2823 44.0007 94.3899Z" fill="#009190"/>
<path d="M61.6609 54.7399L59.3809 53.4999L89.0209 17.4199L91.2909 18.6599L61.6609 54.7399Z" fill="#170740"/>
<path d="M61.7292 16.2499L59.4492 14.9999C67.166 13.8313 75.0538 15.1851 81.9392 18.8599L84.2192 20.0999C77.3326 16.4285 69.4449 15.0782 61.7292 16.2499Z" fill="#009190"/>
<path d="M41.8991 50.5199L39.6191 49.2799L46.2891 41.1699L48.5691 42.4099L41.8991 50.5199Z" fill="#170740"/>
<path d="M61.6291 69.0798L59.3491 67.8398L39.6191 49.2798L41.8991 50.5198L61.6291 69.0798Z" fill="#170740"/>
<path d="M91.2904 18.6599L97.9304 24.8899L61.6304 69.0799L41.9004 50.5199L48.5704 42.4099L61.6604 54.7399L91.2904 18.6599Z" fill="#280D6C"/>
<path d="M39.0008 103.68L36.7208 102.44C24.8908 96 17.0008 82.83 17.0708 66.61C17.1208 41.44 36.1308 18.29 59.4508 15L61.7308 16.24C38.4108 19.53 19.4008 42.68 19.3508 67.85C19.3208 84.07 27.1708 97.24 39.0008 103.68Z" fill="#009190"/>
<path d="M61.7297 16.2499C69.4464 15.0813 77.3342 16.4351 84.2197 20.1099L77.3497 28.4799C72.4376 26.3228 67.0148 25.6016 61.7097 26.3999C43.5697 28.9999 28.7797 46.9999 28.7497 66.5299C28.7197 86.0599 43.4397 99.9999 61.5797 97.4099C79.7197 94.8199 94.5097 76.8599 94.5797 57.2799C94.6311 51.6075 93.2665 46.0119 90.6097 40.9999L97.4797 32.6399C101.849 39.6397 104.113 47.749 104 55.9999C104 81.1799 84.9397 104.32 61.6097 107.6C38.2797 110.88 19.3097 92.9999 19.3497 67.8499C19.3897 42.6999 38.4097 19.5299 61.7297 16.2499Z" fill="#009E96"/>
</g>
<defs>
<clipPath id="clip0_381_60">
<rect width="112.79" height="120.3" fill="white"/>
</clipPath>
</defs>
</svg>
