<svg width="113" height="121" viewBox="0 0 113 121" fill="none" xmlns="http://www.w3.org/2000/svg">
<g clip-path="url(#clip0_303_9)">
<path d="M87.1206 7.65978L86.5605 7.35978C85.9505 7.05978 85.3406 6.75978 84.7206 6.47978L84.5305 6.38978C83.8505 6.08978 83.1605 5.79978 82.4605 5.52978L81.8805 5.31978C81.3205 5.10978 80.7606 4.91978 80.1906 4.72978L79.6705 4.55978C78.9605 4.33978 78.2306 4.12978 77.5005 3.93978L77.0506 3.82978C76.4406 3.67978 75.8306 3.54978 75.2206 3.41978L74.5806 3.29978C73.8605 3.15978 73.1306 3.03978 72.4006 2.92978H72.2805C71.5106 2.81978 70.7405 2.73978 69.9505 2.66978L69.3006 2.61978L67.4105 2.51978H66.8605C66.0605 2.51978 65.2605 2.51978 64.4605 2.51978H63.9305C63.2705 2.51978 62.6205 2.57978 61.9305 2.62978L61.2505 2.68978C60.4205 2.75978 59.5905 2.84978 58.7605 2.96978C28.8905 7.17978 4.62055 36.7398 4.56055 68.9998C4.56055 69.8898 4.56055 70.7798 4.62055 71.6598C4.62055 71.8698 4.62055 72.0698 4.62055 72.2798C4.67055 73.1398 4.72055 73.9998 4.80055 74.8498V75.1598C4.88055 75.9398 4.97055 76.6998 5.08055 77.4698C5.08055 77.6498 5.08055 77.8398 5.15055 78.0198C5.27055 78.8498 5.41055 79.6598 5.56055 80.4698L5.65055 80.9198C5.80055 81.6298 5.95055 82.3398 6.12055 83.0398C6.12055 83.1998 6.19055 83.3498 6.23055 83.5098C6.42055 84.2898 6.63055 85.0598 6.86055 85.8298L7.01055 86.3298C7.22055 87.0198 7.44055 87.7098 7.68055 88.3298C7.68055 88.4398 7.75055 88.5498 7.79055 88.6498C8.05055 89.3898 8.34055 90.1298 8.63055 90.8498L8.84055 91.3598C9.14055 92.0698 9.44055 92.7598 9.77055 93.4498C9.76678 93.4797 9.76678 93.5099 9.77055 93.5398C10.1005 94.2398 10.4605 94.9398 10.8205 95.6198L11.0805 96.0998C11.4505 96.7698 11.8305 97.4398 12.2205 98.0998L12.3405 98.2798C12.7105 98.8898 13.0905 99.4798 13.4905 100.06L13.7705 100.49C14.2005 101.1 14.6405 101.71 15.0905 102.3L15.3205 102.6C15.7305 103.12 16.1405 103.6 16.5705 104.14C16.6705 104.26 16.7605 104.38 16.8605 104.49C17.3405 105.05 17.8605 105.6 18.3405 106.13L18.6605 106.46C19.1205 106.94 19.5805 107.4 20.0605 107.85C20.1505 107.93 20.2305 108.02 20.3105 108.1C20.8505 108.6 21.4005 109.1 21.9505 109.56L22.3405 109.88C22.8805 110.33 23.4205 110.76 23.9805 111.18L24.1005 111.28C24.6905 111.72 25.2905 112.15 25.9005 112.56L26.3405 112.85C26.9505 113.25 27.5705 113.65 28.2105 114.02L28.3405 114.09C37.4446 119.357 48.0745 121.358 58.4705 119.76C88.3705 115.56 112.641 85.9998 112.701 53.7598C112.831 32.7498 102.561 15.7698 87.1206 7.65978Z" fill="#F1F2F2"/>
<path d="M26.43 112.89L26 112.6C25.39 112.19 24.79 111.76 24.2 111.32L24.08 111.22C23.52 110.8 22.98 110.37 22.44 109.92L22 109.6C21.45 109.12 20.9 108.6 20.36 108.14C20.28 108.06 20.2 107.97 20.11 107.89C19.63 107.44 19.17 106.98 18.71 106.5L18.39 106.17C17.89 105.64 17.39 105.09 16.91 104.53C16.81 104.42 16.72 104.3 16.62 104.18C16.19 103.68 15.78 103.18 15.37 102.64L15.14 102.34C14.69 101.75 14.25 101.15 13.82 100.53L13.54 100.1C13.14 99.5199 12.76 98.9299 12.39 98.3199L12.27 98.1399C11.88 97.4899 11.5 96.8199 11.13 96.1399L10.87 95.6599C10.51 94.9799 10.15 94.2799 9.82 93.5799C9.81623 93.55 9.81623 93.5198 9.82 93.4899C9.49 92.7999 9.19 92.1099 8.89 91.3999L8.68 90.8899C8.39 90.1699 8.1 89.4299 7.84 88.6899C7.84 88.5899 7.77 88.4799 7.73 88.3699C7.49 87.6999 7.27 87.0099 7.06 86.3699L6.91 85.8699C6.68 85.0999 6.47 84.3299 6.28 83.5499C6.28 83.3899 6.2 83.2399 6.17 83.0799C6 82.3799 5.85 81.6699 5.7 80.9599L5.61 80.5099C5.46 79.6999 5.32 78.8899 5.2 78.0599C5.2 77.8799 5.2 77.6899 5.13 77.5099C5.02 76.7399 4.93 75.9799 4.85 75.1999V74.8899C4.77 74.0399 4.72 73.1799 4.67 72.3199C4.67 72.1099 4.67 71.9099 4.67 71.6999C4.67 70.8199 4.61 69.9299 4.61 69.0399C4.62 36.7399 28.89 7.17988 58.78 2.99988C59.61 2.87988 60.44 2.78988 61.27 2.71988L62 2.63988C62.67 2.58988 63.32 2.54988 64 2.52988H64.53C65.33 2.52988 66.13 2.52988 66.93 2.52988H67.48L69.37 2.62988L70.02 2.67988C70.81 2.74988 71.58 2.82988 72.35 2.93988H72.47C73.2 3.04988 73.93 3.16988 74.65 3.30988L75.29 3.42988C75.9 3.55988 76.51 3.68988 77.12 3.83988L77.57 3.94988C78.3 4.13988 79.03 4.34988 79.74 4.56988L80.26 4.73988C80.83 4.92988 81.39 5.11988 81.95 5.32988L82.53 5.53988C83.23 5.80988 83.92 6.09988 84.6 6.39988L84.79 6.48988C85.41 6.76988 86.02 7.06988 86.63 7.36988L87.19 7.66988L87.76 7.95988L83.13 5.46988C74.286 0.725661 64.1406 -1.01846 54.22 0.49988C24.33 4.69988 0.06 34.2599 0 66.5199C0 87.2999 10 104.13 25.1 112.36L29.66 114.84C29.24 114.61 28.83 114.37 28.43 114.13L28.3 114.06C27.66 113.69 27 113.29 26.43 112.89Z" fill="#D1D3D4"/>
<path d="M62.7409 59.04L60.4609 57.8L69.8609 56.48L72.1409 57.72L62.7409 59.04Z" fill="#009190"/>
<path d="M49.0593 82.7898L46.7793 81.5498C50.2233 83.4209 54.1819 84.1227 58.0593 83.5498L60.3393 84.7898C56.4619 85.3627 52.5033 84.6609 49.0593 82.7898Z" fill="#009190"/>
<path d="M69.4305 39.7798L71.7105 40.9998C77.6205 44.2198 81.5505 50.7998 81.5305 58.9098C81.5305 71.4998 72.0005 83.0798 60.3405 84.7198L58.0605 83.4998C69.7205 81.8598 79.2305 70.2798 79.2605 57.6898C79.2705 49.5798 75.3405 42.9998 69.4305 39.7798Z" fill="#009190"/>
<path d="M58.0591 44.4798L55.7891 43.2398L60.4891 42.5798L62.7691 43.8198L58.0591 44.4798Z" fill="#009190"/>
<path d="M58.03 64.78L55.75 63.53L55.79 43.24L58.06 44.48L58.03 64.78Z" fill="#009190"/>
<path d="M44.0007 92.07L41.7207 90.83C33.2107 86.18 27.5307 76.67 27.5607 65C27.5607 46.82 41.3207 30.1 58.1607 27.74L60.4407 28.98C43.6007 31.3 29.8707 48 29.8407 66.2C29.8107 77.91 35.4907 87.42 44.0007 92.07Z" fill="#009190"/>
<path d="M74.4602 30.5L76.7402 31.74C71.7528 29.0678 66.0333 28.0853 60.4402 28.94L58.1602 27.7C63.7533 26.8453 69.4728 27.8278 74.4602 30.5Z" fill="#009190"/>
<path d="M60.4402 28.4999L58.1602 27.2599L58.1902 12.9099L60.4702 14.1499L60.4402 28.4999Z" fill="#170740"/>
<path d="M20.4304 67.5198L18.1504 66.2798C18.2004 42.5098 36.1504 20.6398 58.1504 17.5498L60.4304 18.7898C38.4304 21.8798 20.4804 43.7498 20.4304 67.5198Z" fill="#170740"/>
<path d="M95.6296 56.9498L93.3496 55.7098L98.0496 55.0498L100.33 56.2898L95.6296 56.9498Z" fill="#170740"/>
<path d="M60.31 100L58 98.71C77.44 95.98 93.28 76.71 93.32 55.71L95.63 57C95.59 77.93 79.75 97.22 60.31 100Z" fill="#170740"/>
<path d="M53.6609 103.42L51.3809 102.18L58.0409 94.0698L60.3209 95.3098L53.6609 103.42Z" fill="#170740"/>
<path d="M60.2909 109.66L58.0109 108.42L51.3809 102.18L53.6609 103.42L60.2909 109.66Z" fill="#170740"/>
<path d="M100.329 56.2898C100.329 80.0698 82.3292 101.93 60.3292 105.03V109.66L53.6992 103.42L60.3592 95.3098V99.9998C79.7992 97.2698 95.6392 77.9998 95.6792 56.9998L100.329 56.2898Z" fill="#280D6C"/>
<path d="M60.4399 28.94C77.2899 26.57 90.9999 39.44 90.9299 57.61C90.8599 75.78 77.1599 92.51 60.3199 94.88C43.4799 97.25 29.7999 84.38 29.8399 66.2C29.8799 48.02 43.5999 31.3 60.4399 28.94ZM60.3399 84.74C71.9999 83.1 81.5099 71.52 81.5299 58.93C81.5499 46.34 72.0799 37.44 60.4199 39.08C48.7599 40.72 39.2499 52.3 39.2299 64.88C39.2099 77.46 48.6799 86.38 60.3399 84.74Z" fill="#009E96"/>
<path d="M62.7693 43.8198L62.7393 59.0398L72.1393 57.7198L72.1293 62.7898L58.0293 64.7798L58.0593 44.4798L62.7693 43.8198Z" fill="#009E96"/>
<path d="M60.4695 14.1499L67.0995 20.3899L60.4395 28.4999L60.4695 14.1499Z" fill="#280D6C"/>
<path d="M60.4594 18.7898V23.8598C41.0294 26.5898 25.1795 45.8598 25.1395 66.8598L20.4395 67.5198C20.4795 43.7498 38.4294 21.8798 60.4594 18.7898Z" fill="#280D6C"/>
</g>
<defs>
<clipPath id="clip0_303_9">
<rect width="112.79" height="120.3" fill="white"/>
</clipPath>
</defs>
</svg>
