<svg width="113" height="121" viewBox="0 0 113 121" fill="none" xmlns="http://www.w3.org/2000/svg">
<g clip-path="url(#clip0_381_152)">
<path d="M87.1206 7.65978L86.5605 7.35978C85.9505 7.05978 85.3405 6.75978 84.7105 6.47978L84.5305 6.38978C83.8505 6.08978 83.1605 5.79978 82.4605 5.52978L81.8805 5.31978C81.3205 5.10978 80.7606 4.91978 80.1906 4.72978L79.6705 4.55978C78.9605 4.33978 78.2305 4.12978 77.5005 3.93978L77.0506 3.82978C76.4406 3.67978 75.8306 3.54978 75.2206 3.41978L74.5806 3.29978C73.8606 3.15978 73.1306 3.03978 72.4006 2.92978H72.2805C71.5105 2.81978 70.7305 2.73978 69.9505 2.66978L69.3006 2.61978L67.4105 2.51978H66.8605C66.0605 2.51978 65.2605 2.51978 64.4605 2.51978H63.9305C63.2705 2.51978 62.6205 2.57978 61.9305 2.62978L61.2505 2.68978C60.4205 2.75978 59.5905 2.84978 58.7605 2.96978C28.8905 7.17978 4.62055 36.7398 4.56055 68.9998C4.56055 69.8898 4.56055 70.7798 4.62055 71.6598C4.62055 71.8698 4.62055 72.0698 4.62055 72.2798C4.67055 73.1398 4.72055 73.9998 4.80055 74.8498V75.1598C4.88055 75.9398 4.97055 76.6998 5.08055 77.4698C5.08055 77.6498 5.08055 77.8398 5.15055 78.0198C5.27055 78.8498 5.41055 79.6598 5.56055 80.4698L5.65055 80.9198C5.80055 81.6298 5.95055 82.3398 6.12055 83.0398C6.12055 83.1998 6.19055 83.3498 6.23055 83.5098C6.42055 84.2898 6.63055 85.0598 6.86055 85.8298L7.01055 86.3298C7.22055 87.0198 7.44055 87.7098 7.68055 88.3298C7.68055 88.4398 7.75055 88.5498 7.79055 88.6498C8.05055 89.3898 8.34055 90.1298 8.63055 90.8498L8.84055 91.3598C9.14055 92.0698 9.44055 92.7598 9.77055 93.4498C9.76678 93.4797 9.76678 93.5099 9.77055 93.5398C10.1005 94.2398 10.4605 94.9398 10.8205 95.6198L11.0805 96.0998C11.4505 96.7698 11.8305 97.4398 12.2205 98.0998L12.3405 98.2798C12.7105 98.8898 13.0905 99.4798 13.4905 100.06L13.7705 100.49C14.2005 101.11 14.6405 101.71 15.0905 102.3L15.3205 102.6C15.7305 103.12 16.1405 103.6 16.5705 104.14C16.6705 104.26 16.7605 104.38 16.8605 104.49C17.3405 105.05 17.8605 105.6 18.3405 106.13L18.6605 106.46C19.1205 106.94 19.5805 107.4 20.0605 107.85C20.1505 107.93 20.2305 108.02 20.3105 108.1C20.8505 108.6 21.4005 109.1 21.9505 109.56L22.3405 109.88C22.8805 110.33 23.4205 110.76 23.9805 111.18L24.1005 111.28C24.6905 111.72 25.2905 112.15 25.9005 112.56L26.3405 112.85C26.9505 113.25 27.5705 113.65 28.2105 114.02L28.3405 114.09C37.4446 119.357 48.0745 121.358 58.4705 119.76C88.3705 115.56 112.641 85.9998 112.701 53.7598C112.831 32.7498 102.561 15.7698 87.1206 7.65978Z" fill="#F1F2F2"/>
<path d="M26.43 112.89L26 112.6C25.39 112.19 24.79 111.76 24.2 111.32L24.08 111.22C23.52 110.8 22.98 110.37 22.44 109.92L22 109.6C21.45 109.12 20.9 108.6 20.36 108.14C20.28 108.06 20.2 107.97 20.11 107.89C19.63 107.44 19.17 106.98 18.71 106.5L18.39 106.17C17.89 105.64 17.39 105.09 16.91 104.53C16.81 104.42 16.72 104.3 16.62 104.18C16.19 103.68 15.78 103.18 15.37 102.64L15.14 102.34C14.69 101.75 14.25 101.15 13.82 100.53L13.54 100.1C13.14 99.5199 12.76 98.9299 12.39 98.3199L12.27 98.1399C11.88 97.4899 11.5 96.8199 11.13 96.1399L10.87 95.6599C10.51 94.9799 10.15 94.2799 9.82 93.5799C9.81623 93.55 9.81623 93.5198 9.82 93.4899C9.49 92.7999 9.19 92.1099 8.89 91.3999L8.68 90.8899C8.39 90.1699 8.1 89.4299 7.84 88.6899C7.84 88.5899 7.77 88.4799 7.73 88.3699C7.49 87.6999 7.27 87.0099 7.06 86.3699L6.91 85.8699C6.68 85.0999 6.47 84.3299 6.28 83.5499C6.28 83.3899 6.2 83.2399 6.17 83.0799C6 82.3799 5.85 81.6699 5.7 80.9599L5.61 80.5099C5.46 79.6999 5.32 78.8899 5.2 78.0599C5.2 77.8799 5.2 77.6899 5.13 77.5099C5.02 76.7399 4.93 75.9799 4.85 75.1999V74.8899C4.77 74.0399 4.72 73.1799 4.67 72.3199C4.67 72.1099 4.67 71.9099 4.67 71.6999C4.67 70.8199 4.61 69.9299 4.61 69.0399C4.62 36.7399 28.89 7.17988 58.78 2.99988C59.61 2.87988 60.44 2.78988 61.27 2.71988L62 2.63988C62.67 2.58988 63.32 2.54988 64 2.52988H64.53C65.33 2.52988 66.13 2.52988 66.93 2.52988H67.48L69.37 2.62988L70.02 2.67988C70.8 2.74988 71.58 2.82988 72.35 2.93988H72.47C73.2 3.04988 73.93 3.16988 74.65 3.30988L75.29 3.42988C75.9 3.55988 76.51 3.68988 77.12 3.83988L77.57 3.94988C78.3 4.13988 79.03 4.34988 79.74 4.56988L80.26 4.73988C80.83 4.92988 81.39 5.11988 81.95 5.32988L82.53 5.53988C83.23 5.80988 83.92 6.09988 84.6 6.39988L84.78 6.48988C85.41 6.76988 86.02 7.06988 86.63 7.36988L87.19 7.66988L87.76 7.95988L83.13 5.46988C74.286 0.725661 64.1406 -1.01846 54.22 0.49988C24.33 4.69988 0.06 34.2599 0 66.5199C0 87.2999 10 104.13 25.1 112.36L29.66 114.84C29.24 114.61 28.83 114.37 28.43 114.13L28.3 114.06C27.66 113.69 27 113.29 26.43 112.89Z" fill="#D1D3D4"/>
<path d="M66.2898 102.12L64.0098 100.88L73.4098 99.5598L75.6798 100.8L66.2898 102.12Z" fill="#009190"/>
<path d="M94.5202 77.8598L92.2402 76.6198L92.3202 36.0498L94.6002 37.2898L94.5202 77.8598Z" fill="#009190"/>
<path d="M75.7605 60.2198L73.4805 58.9798L82.9005 47.5098L85.1805 48.7498L75.7605 60.2198Z" fill="#170740"/>
<path d="M56.8796 103.44L54.5996 102.2L54.6196 92.0598L56.8996 93.2998L56.8796 103.44Z" fill="#009190"/>
<path d="M47.4909 104.76L45.2109 103.52L54.6009 102.2L56.8809 103.44L47.4909 104.76Z" fill="#009190"/>
<path d="M47.4792 109.84L45.1992 108.6L45.2092 103.52L47.4892 104.76L47.4792 109.84Z" fill="#009190"/>
<path d="M64.0105 64.4098L61.7305 63.1698L68.8005 54.5698L71.0805 55.8098L64.0105 64.4098Z" fill="#170740"/>
<path d="M49.9109 66.3898L47.6309 65.1498L54.6909 56.5498L56.9709 57.7898L49.9109 66.3898Z" fill="#170740"/>
<path d="M38.1491 75.6498L35.8691 74.4098L35.8791 69.3298L38.1591 70.5698L38.1491 75.6498Z" fill="#170740"/>
<path d="M85.1804 48.75L85.1404 69.04L38.1504 75.65L38.1604 70.57L45.2204 61.97L49.9104 66.39L56.9704 57.79L64.0104 64.41L71.0804 55.81L75.7604 60.22L85.1804 48.75Z" fill="#280D6C"/>
<path d="M38.1609 70.57L35.8809 69.33L42.9409 60.73L45.2209 61.97L38.1609 70.57Z" fill="#170740"/>
<path d="M28.7292 87.1099L26.4492 85.8699L92.2392 76.6199L94.5192 77.8599L28.7292 87.1099Z" fill="#009190"/>
<path d="M103.911 86.6898L66.3105 91.9998V102.14L75.7005 100.82V105.89L47.5105 109.89V104.81L56.9006 103.49V93.3498L19.3105 98.5798L19.4205 37.7098L104.001 25.8198L103.911 86.6898ZM28.7205 87.1098L94.5205 77.8598L94.6005 37.2898L28.8005 46.5398L28.7205 87.1098Z" fill="#009E96"/>
<path d="M19.4206 37.7098L17.1406 36.4698L101.741 24.5798L104.021 25.8198L19.4206 37.7098Z" fill="#009190"/>
<path d="M19.3093 98.58L17.0293 97.34L17.1393 36.47L19.4193 37.71L19.3093 98.58Z" fill="#009190"/>
</g>
<defs>
<clipPath id="clip0_381_152">
<rect width="112.79" height="120.3" fill="white"/>
</clipPath>
</defs>
</svg>
