<svg width="113" height="121" viewBox="0 0 113 121" fill="none" xmlns="http://www.w3.org/2000/svg">
<g clip-path="url(#clip0_387_294)">
<path d="M87.1206 7.65978L86.5605 7.35978C85.9505 7.05978 85.3406 6.75978 84.7206 6.47978L84.5305 6.38978C83.8505 6.08978 83.1605 5.79978 82.4605 5.52978L81.8805 5.31978C81.3205 5.10978 80.7606 4.91978 80.1906 4.72978L79.6705 4.55978C78.9605 4.33978 78.2305 4.12978 77.5005 3.93978L77.0506 3.82978C76.4406 3.67978 75.8306 3.54978 75.2206 3.41978L74.5806 3.29978C73.8606 3.15978 73.1306 3.03978 72.4006 2.92978H72.2805C71.5105 2.81978 70.7405 2.73978 69.9505 2.66978L69.3006 2.61978L67.4105 2.51978H66.8605C66.0605 2.51978 65.2605 2.51978 64.4605 2.51978H63.9305C63.2705 2.51978 62.6205 2.57978 61.9305 2.62978L61.2505 2.68978C60.4205 2.75978 59.5905 2.84978 58.7605 2.96978C28.8905 7.17978 4.62055 36.7398 4.56055 68.9998C4.56055 69.8898 4.56055 70.7798 4.62055 71.6598C4.62055 71.8698 4.62055 72.0698 4.62055 72.2798C4.67055 73.1398 4.72055 73.9998 4.80055 74.8498V75.1598C4.88055 75.9398 4.97055 76.6998 5.08055 77.4698C5.08055 77.6498 5.08055 77.8398 5.15055 78.0198C5.27055 78.8498 5.41055 79.6598 5.56055 80.4698L5.65055 80.9198C5.80055 81.6298 5.95055 82.3398 6.12055 83.0398C6.12055 83.1998 6.19055 83.3498 6.23055 83.5098C6.42055 84.2898 6.63055 85.0598 6.86055 85.8298L7.01055 86.3298C7.22055 87.0198 7.44055 87.7098 7.68055 88.3298C7.68055 88.4398 7.75055 88.5498 7.79055 88.6498C8.05055 89.3898 8.34055 90.1298 8.63055 90.8498L8.84055 91.3598C9.14055 92.0698 9.44055 92.7598 9.77055 93.4498C9.76678 93.4797 9.76678 93.5099 9.77055 93.5398C10.1005 94.2398 10.4605 94.9398 10.8205 95.6198L11.0805 96.0998C11.4505 96.7698 11.8305 97.4398 12.2205 98.0998L12.3405 98.2798C12.7105 98.8898 13.0905 99.4798 13.4905 100.06L13.7705 100.49C14.2005 101.1 14.6405 101.71 15.0905 102.3L15.3205 102.6C15.7305 103.12 16.1405 103.6 16.5705 104.14C16.6705 104.26 16.7605 104.38 16.8605 104.49C17.3405 105.05 17.8605 105.6 18.3405 106.13L18.6605 106.46C19.1205 106.94 19.5805 107.4 20.0605 107.85C20.1505 107.93 20.2305 108.02 20.3105 108.1C20.8505 108.6 21.4005 109.1 21.9505 109.56L22.3405 109.88C22.8805 110.33 23.4205 110.76 23.9805 111.18L24.1005 111.28C24.6905 111.72 25.2905 112.15 25.9005 112.56L26.3405 112.85C26.9505 113.25 27.5705 113.65 28.2105 114.02L28.3405 114.09C37.4446 119.357 48.0745 121.358 58.4705 119.76C88.3705 115.56 112.641 85.9998 112.701 53.7598C112.831 32.7498 102.561 15.7698 87.1206 7.65978Z" fill="#F1F2F2"/>
<path d="M26.43 112.89L26 112.6C25.39 112.19 24.79 111.76 24.2 111.32L24.08 111.22C23.52 110.8 22.98 110.37 22.44 109.92L22 109.6C21.45 109.12 20.9 108.6 20.36 108.14C20.28 108.06 20.2 107.97 20.11 107.89C19.63 107.44 19.17 106.98 18.71 106.5L18.39 106.17C17.89 105.64 17.39 105.09 16.91 104.53C16.81 104.42 16.72 104.3 16.62 104.18C16.19 103.68 15.78 103.18 15.37 102.64L15.14 102.34C14.69 101.75 14.25 101.15 13.82 100.53L13.54 100.1C13.14 99.5199 12.76 98.9299 12.39 98.3199L12.27 98.1399C11.88 97.4899 11.5 96.8199 11.13 96.1399L10.87 95.6599C10.51 94.9799 10.15 94.2799 9.82 93.5799C9.81623 93.55 9.81623 93.5198 9.82 93.4899C9.49 92.7999 9.19 92.1099 8.89 91.3999L8.68 90.8899C8.39 90.1699 8.1 89.4299 7.84 88.6899C7.84 88.5899 7.77 88.4799 7.73 88.3699C7.49 87.6999 7.27 87.0099 7.06 86.3699L6.91 85.8699C6.68 85.0999 6.47 84.3299 6.28 83.5499C6.28 83.3899 6.2 83.2399 6.17 83.0799C6 82.3799 5.85 81.6699 5.7 80.9599L5.61 80.5099C5.46 79.6999 5.32 78.8899 5.2 78.0599C5.2 77.8799 5.2 77.6899 5.13 77.5099C5.02 76.7399 4.93 75.9799 4.85 75.1999V74.8899C4.77 74.0399 4.72 73.1799 4.67 72.3199C4.67 72.1099 4.67 71.9099 4.67 71.6999C4.67 70.8199 4.61 69.9299 4.61 69.0399C4.62 36.7399 28.89 7.17988 58.78 2.99988C59.61 2.87988 60.44 2.78988 61.27 2.71988L62 2.63988C62.67 2.58988 63.32 2.54988 64 2.52988H64.53C65.33 2.52988 66.13 2.52988 66.93 2.52988H67.48L69.37 2.62988L70.02 2.67988C70.81 2.74988 71.58 2.82988 72.35 2.93988H72.47C73.2 3.04988 73.93 3.16988 74.65 3.30988L75.29 3.42988C75.9 3.55988 76.51 3.68988 77.12 3.83988L77.57 3.94988C78.3 4.13988 79.03 4.34988 79.74 4.56988L80.26 4.73988C80.83 4.92988 81.39 5.11988 81.95 5.32988L82.53 5.53988C83.23 5.80988 83.92 6.09988 84.6 6.39988L84.79 6.48988C85.41 6.76988 86.02 7.06988 86.63 7.36988L87.19 7.66988L87.76 7.95988L83.13 5.46988C74.286 0.725661 64.1406 -1.01846 54.22 0.49988C24.33 4.69988 0.06 34.2599 0 66.5199C0 87.2999 10 104.13 25.1 112.36L29.66 114.84C29.24 114.61 28.83 114.37 28.43 114.13L28.3 114.06C27.66 113.69 27 113.29 26.43 112.89Z" fill="#D1D3D4"/>
<path d="M96.8599 33.25C101.192 40.2634 103.433 48.3673 103.32 56.61C103.251 65.422 101.001 74.0799 96.7699 81.81L89.9199 75.38C92.5199 69.9281 93.8857 63.97 93.9199 57.93C93.9887 52.2489 92.6415 46.6401 89.9999 41.61L96.8599 33.25Z" fill="#009E96"/>
<path d="M76.5995 91.5999L83.4395 97.9999C77.0158 103.402 69.227 106.928 60.9295 108.19C53.2127 109.358 45.3251 108.004 38.4395 104.33L45.3095 95.9999C50.2392 98.1572 55.6789 98.8749 60.9995 98.0699C66.6476 97.2115 72.0017 94.9908 76.5995 91.5999Z" fill="#009E96"/>
<path d="M34.5506 101.93L32.2706 100.69C31.0393 99.8077 29.8699 98.8421 28.7706 97.8C27.6539 96.7542 26.6082 95.6351 25.6406 94.45L27.9206 95.69C28.8896 96.8613 29.9352 97.9671 31.0506 99C32.1486 100.056 33.318 101.035 34.5506 101.93Z" fill="#170740"/>
<path d="M61.0998 16.9098C68.8166 15.7375 76.7056 17.0915 83.5898 20.7698L76.7198 29.1298C71.8076 26.9732 66.385 26.252 61.0798 27.0498C55.4113 27.8959 50.0373 30.121 45.4298 33.5298L38.5898 27.0898C45.0152 21.6925 52.8036 18.1702 61.0998 16.9098Z" fill="#009E96"/>
<path d="M87.3398 94.5098L85.0598 93.2698L67.0098 76.2898L69.2898 77.5298L87.3398 94.5098Z" fill="#170740"/>
<path d="M65.5905 66.8599L63.3105 65.6199L77.4105 63.6399L79.6805 64.8799L65.5905 66.8599Z" fill="#170740"/>
<path d="M65.5593 82.0799L63.2793 80.8399L63.3093 65.6199L65.5893 66.8599L65.5593 82.0799Z" fill="#170740"/>
<path d="M56.3904 83.3599L54.1204 82.1199L50.4004 78.6299L52.6804 79.8699L56.3904 83.3599Z" fill="#009190"/>
<path d="M69.3503 45.25L67.0703 44.0099L85.1903 21.95L87.4703 23.19L69.3503 45.25Z" fill="#170740"/>
<path d="M65.6001 56.9698L63.3301 55.7298L63.3501 40.5098L65.6301 41.7498L65.6001 56.9698Z" fill="#170740"/>
<path d="M42.3191 70.1299L40.0391 68.8899L54.1391 66.9099L56.4191 68.1499L42.3191 70.1299Z" fill="#170740"/>
<path d="M46.0391 73.6299L43.7591 72.3899L40.0391 68.8899L42.3191 70.1299L46.0391 73.6299Z" fill="#009190"/>
<path d="M27.9206 95.6899L25.6406 94.4499L43.7606 72.3899L46.0406 73.6299L27.9206 95.6899Z" fill="#170740"/>
<path d="M52.7409 47.5798L50.4609 46.3398L54.1909 41.7998L56.4709 43.0398L52.7409 47.5798Z" fill="#170740"/>
<path d="M42.3405 60.24L40.0605 59L43.8005 54.45L46.0805 55.6899L42.3405 60.24Z" fill="#170740"/>
<path d="M46.0802 55.69L43.8002 54.45L25.7402 37.47L28.0202 38.71L46.0802 55.69Z" fill="#170740"/>
<path d="M28.0007 38.7099L25.7207 37.4699C27.6831 34.5652 29.9165 31.8531 32.3907 29.3699L34.6707 30.6099C32.1965 33.0931 29.9631 35.8052 28.0007 38.7099Z" fill="#170740"/>
<path d="M79.6794 64.8799L75.9994 69.4299L93.9994 86.4299C93.0273 87.897 91.9792 89.3123 90.8594 90.6699C89.7545 92.0206 88.5796 93.3123 87.3394 94.5399L69.3394 77.5399L65.6094 82.0899V66.8699L79.6794 64.8799Z" fill="#280D6C"/>
<path d="M87.4696 23.1899C89.9383 24.9803 92.1695 27.0771 94.1096 29.4299L75.9996 51.4899L79.6996 54.9999L65.5996 56.9999V41.7799L69.3196 45.2799L87.4696 23.1899Z" fill="#280D6C"/>
<path d="M56.4199 68.1499V83.3599L52.7099 79.8699L34.5499 101.93C33.3173 101.035 32.1479 100.056 31.0499 98.9999C29.9331 97.9542 28.8875 96.835 27.9199 95.6499L45.9999 73.6299L42.2799 70.1299L56.4199 68.1499Z" fill="#280D6C"/>
<path d="M34.6896 30.6099L52.7396 47.6099L56.4696 42.9999V58.2199L42.3696 60.2199L46.0996 55.6699L28.0996 38.6699C30.0388 35.7826 32.2452 33.084 34.6896 30.6099Z" fill="#280D6C"/>
<path d="M96.7706 81.8099L94.4906 80.5699L87.6406 74.1399L89.9206 75.3799L96.7706 81.8099Z" fill="#009190"/>
<path d="M89.9206 75.3799L87.6406 74.1399C90.2406 68.688 91.6064 62.7299 91.6406 56.6899C91.7094 51.0088 90.3622 45.4 87.7206 40.3699L90.0006 41.6099C92.6422 46.64 93.9894 52.2488 93.9206 57.9299C93.8864 63.9699 92.5206 69.928 89.9206 75.3799Z" fill="#009190"/>
<path d="M89.9909 41.5998L87.7109 40.3698L94.5809 32.0098L96.8609 33.2498L89.9909 41.5998Z" fill="#009190"/>
<path d="M45.31 95.9999L43 94.7499C47.9137 96.9012 53.3348 97.6222 58.64 96.8299C64.3056 95.9793 69.6778 93.7583 74.29 90.3599L76.6 91.5999C72.0023 94.9909 66.6481 97.2115 61 98.0699C55.6795 98.8749 50.2397 98.1572 45.31 95.9999Z" fill="#009190"/>
<path d="M38.4402 104.36L36.1602 103.12L43.0302 94.75L45.3102 95.99L38.4402 104.36Z" fill="#009190"/>
<path d="M61.1003 16.91L58.8203 15.67C66.5371 14.497 74.4263 15.851 81.3103 19.53L83.5903 20.77C76.706 17.0917 68.8171 15.7377 61.1003 16.91Z" fill="#009190"/>
<path d="M38.5905 27.0899L36.3105 25.8499C42.7359 20.4526 50.5243 16.9303 58.8205 15.6699L61.1005 16.9099C52.8043 18.1703 45.0159 21.6926 38.5905 27.0899Z" fill="#009190"/>
<path d="M45.4305 33.5299L43.1505 32.2899L36.3105 25.8499L38.5905 27.0899L45.4305 33.5299Z" fill="#009190"/>
<path d="M25.1809 91.8698L22.9009 90.6298C18.553 83.6196 16.3107 75.5079 16.4409 67.2598C16.5117 58.45 18.7656 49.7951 23.0009 42.0698L25.2809 43.3098C21.0409 51.0333 18.7867 59.6893 18.7209 68.4998C18.5907 76.7479 20.833 84.8596 25.1809 91.8698Z" fill="#009190"/>
<path d="M25.2702 43.3098L32.1102 49.7398C29.5231 55.1926 28.1579 61.1446 28.1102 67.1798C28.0417 72.8665 29.3961 78.4801 32.0502 83.5098L25.1802 91.8698C20.8323 84.8596 18.59 76.7478 18.7202 68.4998C18.7829 59.6902 21.0337 51.0342 25.2702 43.3098Z" fill="#009E96"/>
</g>
<defs>
<clipPath id="clip0_387_294">
<rect width="112.79" height="120.3" fill="white"/>
</clipPath>
</defs>
</svg>
